<svg width="413" height="160" viewBox="0 0 413 160" fill="none" xmlns="http://www.w3.org/2000/svg">
<rect x="0.5" y="0.5" width="412" height="159" rx="7.5" fill="white"/>
<path d="M109.789 45.56C112.541 47.096 114.781 49.176 116.509 51.8C118.301 54.424 119.197 57.368 119.197 60.632C119.197 63.896 117.149 67.64 113.053 71.864C108.957 76.088 103.965 79.704 98.077 82.712C92.253 85.656 87.165 87.128 82.813 87.128C78.525 87.128 75.421 85.336 73.501 81.752C62.493 96.536 56.285 105.496 54.877 108.632C54.941 108.952 54.973 109.4 54.973 109.976C54.973 110.616 54.621 110.936 53.917 110.936C53.213 110.936 52.285 110.328 51.133 109.112C50.045 107.96 49.501 106.296 49.501 104.12C49.501 103.48 49.533 102.968 49.597 102.584C50.173 98.36 56.029 90.04 67.165 77.624C78.365 65.208 86.429 57.656 91.357 54.968C92.381 54.456 93.149 54.2 93.661 54.2C94.173 54.2 94.685 54.36 95.197 54.68C95.773 55 96.061 55.384 96.061 55.832C96.061 56.28 95.933 56.632 95.677 56.888C90.877 61.88 87.997 64.92 87.037 66.008L75.613 79.256C75.485 79.448 75.421 79.64 75.421 79.832C75.421 80.28 75.709 80.504 76.285 80.504C78.845 80.504 82.301 79.768 86.653 78.296C91.069 76.824 95.421 75 99.709 72.824C103.997 70.584 107.709 67.992 110.845 65.048C113.981 62.04 115.549 59.256 115.549 56.696C115.549 54.584 113.533 53.016 109.501 51.992C105.469 50.968 101.117 50.456 96.445 50.456C91.837 50.456 86.845 51.128 81.469 52.472C76.093 53.752 71.389 55.352 67.357 57.272C63.389 59.192 59.805 61.208 56.605 63.32C53.405 65.368 50.973 67.192 49.309 68.792C47.709 70.328 46.909 71.352 46.909 71.864C46.909 72.312 47.133 72.536 47.581 72.536C48.029 72.536 49.245 72.216 51.229 71.576C57.629 69.464 63.901 66.616 70.045 63.032C70.493 62.776 70.781 62.648 70.909 62.648C71.101 62.648 71.197 62.744 71.197 62.936C71.197 63.064 70.781 63.672 69.949 64.76C69.181 65.784 68.093 67.064 66.685 68.6C65.277 70.072 63.741 71.512 62.077 72.92C60.413 74.328 58.525 75.544 56.413 76.568C54.365 77.528 52.349 78.008 50.365 78.008C48.445 78.008 46.525 77.24 44.605 75.704C42.749 74.104 41.821 71.96 41.821 69.272C41.821 66.52 43.165 63.544 45.853 60.344C48.541 57.144 52.061 54.104 56.413 51.224C60.829 48.344 66.301 45.912 72.829 43.928C79.357 41.944 85.725 40.952 91.933 40.952C98.141 40.952 104.093 42.488 109.789 45.56ZM105.097 102.776C107.145 102.776 109.673 101.432 112.681 98.744C115.689 96.056 117.257 94.2 117.385 93.176C116.617 92.536 115.785 91.384 114.889 89.72C114.057 87.992 113.609 87.128 113.545 87.128C111.561 88.984 109.801 91.128 108.265 93.56C105.833 97.656 104.617 100.472 104.617 102.008C104.617 102.52 104.777 102.776 105.097 102.776ZM125.833 79.256C125.193 79.256 123.849 80.248 121.801 82.232C119.817 84.216 118.825 85.592 118.825 86.36C118.825 86.552 119.017 86.936 119.401 87.512C119.785 88.088 120.073 88.376 120.265 88.376C121.353 88.376 122.569 87.064 123.913 84.44C125.321 81.816 126.025 80.312 126.025 79.928C126.025 79.48 125.961 79.256 125.833 79.256ZM126.025 91.64C127.817 91.64 130.601 90.552 134.377 88.376C138.217 86.2 141.577 84.024 144.457 81.848L148.777 78.488C149.353 78.936 149.641 79.48 149.641 80.12C149.641 80.76 149.353 81.336 148.777 81.848C138.217 91.64 130.217 96.536 124.777 96.536C124.393 96.536 123.817 96.472 123.049 96.344C115.817 104.728 109.609 108.92 104.425 108.92C100.969 108.408 98.793 107.192 97.897 105.272C97.385 104.312 97.129 103.096 97.129 101.624C97.129 97.4 99.561 92.376 104.425 86.552C109.289 80.664 115.401 76.344 122.761 73.592C123.401 73.592 123.881 73.752 124.201 74.072C124.521 74.328 124.809 74.488 125.065 74.552C125.321 74.552 125.641 74.424 126.025 74.168C126.473 73.848 127.049 73.688 127.753 73.688C128.457 73.624 129.193 74.008 129.961 74.84C130.985 75.672 131.497 76.696 131.497 77.912C131.497 81.496 129.673 86.072 126.025 91.64ZM143.989 100.664C146.101 100.664 150.261 98.776 156.469 95C162.741 91.224 168.437 87.448 173.557 83.672L181.333 78.008C181.909 78.456 182.197 79 182.197 79.64C182.197 80.28 181.877 80.888 181.237 81.464C180.597 82.04 179.669 82.872 178.453 83.96C177.301 85.048 175.061 87 171.733 89.816C168.405 92.632 165.301 95.192 162.421 97.496C154.869 103.576 149.301 107.16 145.717 108.248C144.565 108.568 143.381 108.728 142.165 108.728C140.949 108.728 139.989 108.632 139.285 108.44C138.581 108.248 137.813 107.832 136.981 107.192C135.317 105.784 134.485 102.648 134.485 97.784C134.485 96.44 135.061 94.392 136.213 91.64C137.365 88.888 139.253 85.56 141.877 81.656C144.565 77.752 147.669 73.848 151.189 69.944C154.773 66.04 159.285 62.136 164.725 58.232C170.229 54.328 176.085 51.16 182.293 48.728C183.253 48.408 184.117 48.248 184.885 48.248C185.653 48.248 186.357 48.6 186.997 49.304C187.637 49.944 188.085 50.616 188.341 51.32L188.821 52.28C188.821 53.752 186.549 56.984 182.005 61.976C177.333 67.16 171.925 72.12 165.781 76.856C159.701 81.528 154.037 85.528 148.789 88.856C144.501 91.672 142.357 94.616 142.357 97.688C142.357 99.672 142.901 100.664 143.989 100.664ZM152.629 80.792C154.229 80.792 159.061 76.856 167.125 68.984C175.253 61.112 179.317 56.728 179.317 55.832L179.221 55.64L177.589 56.408C174.261 58.584 169.813 62.296 164.245 67.544C158.741 72.792 154.933 76.888 152.821 79.832C152.565 80.152 152.437 80.408 152.437 80.6C152.437 80.728 152.501 80.792 152.629 80.792ZM199.103 75.992C202.111 76.312 203.615 76.984 203.615 78.008C203.615 78.456 203.359 78.968 202.847 79.544C193.823 89.592 183.455 102.392 171.743 117.944C168.351 122.552 164.895 126.904 161.375 131C157.855 135.096 154.559 138.072 151.487 139.928C148.415 141.848 145.215 142.808 141.887 142.808C140.223 142.808 138.751 142.36 137.471 141.464C136.191 140.568 135.551 139.352 135.551 137.816C135.551 134.232 137.279 130.52 140.735 126.68C144.191 122.84 148.063 119.704 152.351 117.272C156.639 114.904 160.351 113.528 163.487 113.144L165.503 113.432C166.143 113.368 168.479 110.904 172.511 106.04C176.607 101.176 178.655 98.616 178.655 98.36C178.719 98.04 178.687 97.88 178.559 97.88L176.735 99.32C171.935 103.8 168.191 106.04 165.503 106.04C163.775 106.04 162.911 104.824 162.911 102.392C162.911 99.128 165.567 93.976 170.879 86.936C176.191 79.896 180.095 76.376 182.591 76.376C182.783 76.376 183.007 76.44 183.263 76.568C185.055 77.016 185.951 77.656 185.951 78.488C185.951 78.808 185.855 79.064 185.663 79.256C185.535 79.384 184.895 79.992 183.743 81.08C182.655 82.168 181.567 83.32 180.479 84.536C179.391 85.688 178.239 86.968 177.023 88.376C174.271 91.576 172.895 93.976 172.895 95.576C172.895 95.96 173.087 96.152 173.471 96.152C173.919 96.152 174.719 95.8 175.871 95.096C184.959 88.888 192.063 82.968 197.183 77.336C197.631 76.44 198.271 75.992 199.103 75.992ZM140.543 138.584C142.783 137.88 145.791 135.672 149.567 131.96C153.343 128.312 156.575 124.856 159.263 121.592L163.295 116.6C163.679 116.088 163.871 115.768 163.871 115.64C163.871 115.512 163.775 115.448 163.583 115.448C161.535 115.448 158.623 117.016 154.847 120.152C151.007 123.288 147.615 126.712 144.671 130.424C141.663 134.136 140.159 136.76 140.159 138.296C140.159 138.488 140.287 138.584 140.543 138.584ZM236.937 101.048C236.937 101.624 237.289 101.912 237.993 101.912C238.761 101.912 240.105 101.464 242.025 100.568C244.009 99.672 246.345 98.296 249.033 96.44C251.785 94.584 255.401 91.96 259.881 88.568C264.425 85.112 268.393 82.2 271.785 79.832C272.361 80.28 272.649 80.824 272.649 81.464C272.649 82.104 272.361 82.68 271.785 83.192C269.737 85.176 267.145 87.672 264.009 90.68C260.873 93.624 256.073 97.592 249.609 102.584C243.209 107.576 238.729 110.072 236.169 110.072C231.241 110.072 228.777 107.448 228.777 102.2C228.777 100.216 229.545 98.136 231.081 95.96L235.209 90.296C235.593 89.72 235.785 89.4 235.785 89.336C235.785 89.208 235.593 89.304 235.209 89.624C224.073 98.904 216.969 104.344 213.897 105.944C213.385 106.264 212.745 106.424 211.977 106.424C209.865 106.424 208.809 105.464 208.809 103.544C208.809 102.904 208.969 102.328 209.289 101.816C213.001 96.44 215.849 92.824 217.833 90.968L219.465 89.336C219.593 89.208 219.656 89.08 219.656 88.952C219.656 88.824 219.593 88.76 219.465 88.76C219.337 88.76 219.145 88.888 218.889 89.144L208.617 97.208C202.665 101.88 199.401 104.376 198.825 104.696C198.313 104.952 197.833 105.08 197.385 105.08C196.937 105.08 196.233 104.824 195.273 104.312C194.312 103.736 193.832 103.096 193.832 102.392C193.832 102.2 193.928 101.944 194.12 101.624C200.393 94.712 204.969 89.016 207.849 84.536C209.065 82.616 210.121 80.92 211.017 79.448C211.977 77.912 212.713 76.824 213.225 76.184C213.801 75.544 214.409 75.224 215.049 75.224C215.689 75.224 216.393 75.608 217.161 76.376C217.993 77.08 218.409 77.816 218.409 78.584C218.409 79.352 218.153 80.152 217.641 80.984C215.465 84.888 213.769 87.416 212.553 88.568C212.361 88.76 212.265 88.952 212.265 89.144C212.265 89.272 212.329 89.336 212.457 89.336L212.745 89.24L225.609 80.312C228.873 78.072 230.825 76.952 231.465 76.952C232.105 76.952 232.777 77.176 233.481 77.624C234.249 78.008 234.633 78.456 234.633 78.968C234.633 79.48 234.473 79.992 234.153 80.504L227.913 89.048C227.081 90.072 226.665 90.648 226.665 90.776C226.665 90.904 226.697 90.968 226.761 90.968L227.241 90.68C235.241 85.24 240.649 81.464 243.465 79.352C246.345 77.24 248.073 75.896 248.649 75.32C249.545 74.68 250.281 74.36 250.857 74.36C251.497 74.36 251.913 74.424 252.105 74.552L254.217 76.184C254.857 76.504 255.177 76.92 255.177 77.432C255.177 77.944 255.049 78.36 254.793 78.68C251.017 82.776 247.977 86.04 245.673 88.472C243.433 90.904 241.801 92.696 240.777 93.848C239.113 95.832 238.089 97.432 237.705 98.648C237.193 99.544 236.937 100.344 236.937 101.048ZM273.088 102.968L273.856 96.824C273.856 96.632 273.792 96.536 273.664 96.536C273.6 96.536 273.44 96.664 273.184 96.92C272.352 97.816 271.296 98.936 270.016 100.28C268.736 101.56 266.528 103.32 263.392 105.56C260.32 107.736 257.824 108.824 255.904 108.824C255.584 108.76 255.2 108.632 254.752 108.44C254.24 108.312 253.6 107.8 252.832 106.904C252.064 106.008 251.68 104.728 251.68 103.064C251.68 101.4 252.96 98.872 255.52 95.48C258.016 92.024 261.024 88.664 264.544 85.4C268.064 82.072 271.968 79.192 276.256 76.76C280.608 74.328 284.384 73.112 287.584 73.112C288.8 73.176 289.76 74.04 290.464 75.704C291.104 75.064 291.68 74.744 292.192 74.744C292.704 74.744 293.312 75.128 294.016 75.896C294.4 75.96 294.784 76.184 295.168 76.568C295.552 76.888 295.744 77.368 295.744 78.008C295.744 78.648 295.296 79.352 294.4 80.12C293.056 81.784 291.488 83.672 289.696 85.784C287.904 87.896 286.624 89.432 285.856 90.392C285.088 91.288 284.288 92.312 283.456 93.464C282.048 95.448 281.28 97.048 281.152 98.264C287.68 95.128 297.952 88.376 311.968 78.008C312.544 78.456 312.832 79 312.832 79.64C312.832 80.28 312.576 80.824 312.064 81.272C311.552 81.72 310.912 82.264 310.144 82.904C309.44 83.544 308 84.792 305.824 86.648C303.648 88.504 301.536 90.296 299.488 92.024C297.504 93.688 295.2 95.576 292.576 97.688C290.016 99.736 287.712 101.496 285.664 102.968C280.736 106.488 277.664 108.248 276.448 108.248C275.232 108.248 274.368 107.864 273.856 107.096C273.344 106.328 273.088 104.952 273.088 102.968ZM263.296 98.936C264.064 98.936 266.4 97.368 270.304 94.232C274.272 91.096 278.016 87.96 281.536 84.824L286.912 80.12C287.168 79.864 287.296 79.704 287.296 79.64C287.296 79.512 287.2 79.448 287.008 79.448C284.576 79.448 281.408 80.856 277.504 83.672C273.6 86.424 270.208 89.368 267.328 92.504C264.512 95.576 263.104 97.656 263.104 98.744C263.104 98.872 263.168 98.936 263.296 98.936ZM337.47 62.648L342.366 62.552C348.702 62.552 353.31 63.448 356.19 65.24C357.598 65.688 358.302 66.264 358.302 66.968C358.302 67.48 357.662 67.832 356.382 68.024C355.166 68.216 350.846 68.728 343.422 69.56C336.062 70.328 331.006 70.776 328.254 70.904C327.038 70.968 324.222 73.08 319.806 77.24C315.454 81.4 311.294 85.976 307.326 90.968C303.358 95.96 301.374 99.448 301.374 101.432C301.374 101.752 301.534 102.04 301.854 102.296C302.174 102.488 302.558 102.584 303.006 102.584C303.518 102.584 304.286 102.392 305.31 102.008C317.47 94.84 329.278 87 340.734 78.488C341.31 78.936 341.598 79.48 341.598 80.12C341.598 80.76 341.278 81.4 340.638 82.04C339.998 82.616 339.038 83.48 337.758 84.632C336.542 85.784 334.238 87.864 330.846 90.872C327.454 93.88 324.254 96.568 321.246 98.936C313.182 105.464 307.55 109.24 304.35 110.264C303.198 110.584 301.822 110.744 300.222 110.744C298.686 110.744 297.246 109.944 295.902 108.344C294.622 106.744 293.982 104.568 293.982 101.816C293.982 99.064 295.742 95.096 299.262 89.912C302.846 84.728 307.71 79.416 313.854 73.976C314.43 73.528 314.718 73.112 314.718 72.728C314.718 72.344 314.046 72.152 312.702 72.152L306.654 72.344C298.142 72.344 293.758 71.384 293.502 69.464C291.518 69.08 290.526 68.504 290.526 67.736C290.526 67.48 290.654 67.352 290.91 67.352C291.166 67.288 291.39 67.256 291.582 67.256C291.774 67.192 292.094 67.128 292.542 67.064C292.99 67 296.51 66.488 303.102 65.528C309.758 64.568 317.31 63.768 325.758 63.128L332.382 54.296C332.766 53.528 334.11 53.144 336.414 53.144C338.718 53.144 339.87 53.624 339.87 54.584C339.87 54.904 339.614 55.48 339.102 56.312L336.702 59.672C336.382 60.696 336.19 61.464 336.126 61.976C336.126 62.424 336.574 62.648 337.47 62.648ZM346.924 98.552C346.924 98.872 347.052 99.032 347.308 99.032C347.564 99.032 348.076 98.84 348.844 98.456C358.38 93.336 368.876 86.52 380.332 78.008C380.908 78.456 381.196 79 381.196 79.64C381.196 80.28 380.876 80.888 380.236 81.464C379.596 82.04 378.668 82.872 377.452 83.96C376.3 85.048 374.06 87 370.732 89.816C367.404 92.632 364.3 95.192 361.42 97.496C353.868 103.576 348.3 107.16 344.716 108.248C343.564 108.568 342.316 108.728 340.972 108.728C338.796 108.728 337.708 107.032 337.708 103.64C337.708 102.488 338.412 100.6 339.82 97.976C341.228 95.288 341.932 93.336 341.932 92.12C341.932 91.992 341.836 91.928 341.644 91.928C341.452 91.928 340.972 92.216 340.204 92.792C331.308 99.704 325.9 104.504 323.98 107.192C323.596 107.768 323.084 108.056 322.444 108.056C321.036 108.056 320.14 107.384 319.756 106.04C319.756 104.12 322.444 99.256 327.82 91.448C333.26 83.64 339.628 75.448 346.924 66.872C354.22 58.232 360.172 52.152 364.78 48.632C366.124 47.352 369.26 46.712 374.188 46.712C374.956 46.904 375.34 47.224 375.34 47.672C375.34 48.12 375.116 48.568 374.668 49.016C356.236 66.808 344.524 79.128 339.532 85.976C339.276 86.232 338.924 86.712 338.476 87.416C338.092 88.056 337.9 88.472 337.9 88.664L337.996 88.76C338.252 88.76 340.268 87.352 344.044 84.536C347.82 81.656 350.636 79.608 352.492 78.392C353.068 77.816 354.284 77.528 356.14 77.528C357.74 77.72 358.54 78.232 358.54 79.064C358.54 79.32 358.476 79.544 358.348 79.736C353.612 86.456 350.764 90.744 349.804 92.6C347.884 95.608 346.924 97.592 346.924 98.552Z" fill="black"/>
<path d="M189.85 116.973H184.878V120.781H189.235V122.052H184.878V127H183.253V115.693H190.039L189.85 116.973ZM198.439 118.147C198.674 118.147 198.887 118.163 199.079 118.196C199.27 118.229 199.478 118.281 199.702 118.352L199.456 121.388H198.242V119.583H198.233C196.937 119.583 196.007 120.51 195.444 122.364V125.835H197.2V127H192.555V125.835H193.868V119.517H192.555V118.352H195.074L195.362 120.378C195.706 119.629 196.119 119.071 196.601 118.705C197.082 118.333 197.695 118.147 198.439 118.147ZM203.589 123.209C203.616 123.822 203.739 124.333 203.958 124.744C204.182 125.148 204.475 125.449 204.836 125.646C205.197 125.838 205.602 125.933 206.051 125.933C206.472 125.933 206.86 125.87 207.216 125.745C207.577 125.619 207.951 125.425 208.34 125.162L209.054 126.155C208.643 126.483 208.173 126.74 207.642 126.926C207.112 127.112 206.565 127.205 206.001 127.205C205.148 127.205 204.418 127.019 203.811 126.647C203.203 126.27 202.741 125.742 202.424 125.064C202.107 124.38 201.948 123.587 201.948 122.684C201.948 121.814 202.104 121.038 202.416 120.354C202.733 119.665 203.181 119.126 203.761 118.737C204.347 118.344 205.028 118.147 205.804 118.147C206.543 118.147 207.183 118.319 207.724 118.664C208.266 119.008 208.682 119.503 208.972 120.149C209.261 120.789 209.406 121.546 209.406 122.422C209.406 122.673 209.395 122.936 209.374 123.209H203.589ZM205.821 119.377C205.181 119.377 204.661 119.604 204.262 120.058C203.868 120.507 203.644 121.174 203.589 122.061H207.888C207.872 121.191 207.683 120.526 207.322 120.067C206.961 119.607 206.461 119.377 205.821 119.377ZM213.433 123.209C213.46 123.822 213.583 124.333 213.802 124.744C214.026 125.148 214.319 125.449 214.68 125.646C215.041 125.838 215.446 125.933 215.894 125.933C216.315 125.933 216.704 125.87 217.059 125.745C217.42 125.619 217.795 125.425 218.183 125.162L218.897 126.155C218.487 126.483 218.017 126.74 217.486 126.926C216.955 127.112 216.408 127.205 215.845 127.205C214.992 127.205 214.261 127.019 213.654 126.647C213.047 126.27 212.585 125.742 212.268 125.064C211.95 124.38 211.792 123.587 211.792 122.684C211.792 121.814 211.948 121.038 212.259 120.354C212.577 119.665 213.025 119.126 213.605 118.737C214.19 118.344 214.871 118.147 215.648 118.147C216.387 118.147 217.027 118.319 217.568 118.664C218.11 119.008 218.525 119.503 218.815 120.149C219.105 120.789 219.25 121.546 219.25 122.422C219.25 122.673 219.239 122.936 219.217 123.209H213.433ZM215.665 119.377C215.025 119.377 214.505 119.604 214.106 120.058C213.712 120.507 213.487 121.174 213.433 122.061H217.732C217.716 121.191 217.527 120.526 217.166 120.067C216.805 119.607 216.305 119.377 215.665 119.377ZM225.557 124.768C225.557 125.162 225.678 125.452 225.919 125.638C226.165 125.818 226.504 125.909 226.936 125.909C227.39 125.909 227.863 125.81 228.355 125.613L228.766 126.737C228.498 126.874 228.183 126.986 227.822 127.074C227.461 127.161 227.067 127.205 226.641 127.205C226.099 127.205 225.629 127.104 225.229 126.902C224.83 126.694 224.521 126.398 224.302 126.015C224.089 125.632 223.982 125.178 223.982 124.653V116.071H221.348V114.873H225.557V124.768ZM238.224 125.014C238.224 125.348 238.276 125.597 238.38 125.761C238.489 125.92 238.664 126.037 238.905 126.114L238.536 127.197C237.677 127.088 237.119 126.685 236.862 125.991C236.555 126.385 236.164 126.685 235.688 126.893C235.218 127.101 234.698 127.205 234.129 127.205C233.555 127.205 233.055 127.096 232.628 126.877C232.207 126.653 231.881 126.338 231.652 125.933C231.427 125.529 231.315 125.058 231.315 124.522C231.315 123.625 231.665 122.936 232.365 122.454C233.071 121.968 234.083 121.724 235.401 121.724H236.657V121.068C236.657 120.493 236.484 120.075 236.14 119.812C235.801 119.55 235.306 119.418 234.655 119.418C234.348 119.418 233.998 119.457 233.604 119.533C233.21 119.604 232.803 119.714 232.382 119.862L231.98 118.713C232.981 118.335 233.952 118.147 234.893 118.147C235.987 118.147 236.815 118.396 237.379 118.893C237.942 119.391 238.224 120.089 238.224 120.986V125.014ZM234.573 126.024C234.977 126.024 235.366 125.92 235.738 125.712C236.11 125.504 236.416 125.214 236.657 124.842V122.75H235.508C234.627 122.75 233.987 122.9 233.588 123.201C233.189 123.496 232.989 123.923 232.989 124.481C232.989 124.99 233.12 125.375 233.383 125.638C233.651 125.895 234.047 126.024 234.573 126.024ZM241.692 127V118.352H243.046L243.161 119.517C243.511 119.085 243.94 118.748 244.449 118.508C244.958 118.267 245.472 118.147 245.992 118.147C246.807 118.147 247.414 118.368 247.813 118.811C248.218 119.254 248.42 119.886 248.42 120.707V127H246.845V121.675C246.845 121.079 246.812 120.622 246.747 120.305C246.681 119.987 246.55 119.752 246.353 119.599C246.156 119.446 245.86 119.369 245.467 119.369C245.034 119.369 244.624 119.503 244.236 119.771C243.853 120.034 243.53 120.357 243.268 120.739V127H241.692ZM255.556 125.876C256.306 125.876 257.039 125.624 257.755 125.121L258.51 126.147C258.127 126.469 257.668 126.726 257.132 126.918C256.596 127.109 256.062 127.205 255.532 127.205C254.673 127.205 253.935 127.022 253.316 126.655C252.698 126.283 252.225 125.761 251.897 125.088C251.574 124.41 251.413 123.619 251.413 122.717C251.413 121.842 251.577 121.059 251.905 120.37C252.233 119.676 252.709 119.131 253.333 118.737C253.962 118.344 254.703 118.147 255.556 118.147C256.678 118.147 257.657 118.486 258.494 119.164L257.747 120.19C257.02 119.686 256.292 119.435 255.565 119.435C255.072 119.435 254.64 119.555 254.268 119.796C253.902 120.037 253.615 120.403 253.407 120.895C253.204 121.382 253.103 121.989 253.103 122.717C253.103 123.789 253.325 124.585 253.768 125.105C254.211 125.619 254.807 125.876 255.556 125.876ZM262.651 123.209C262.679 123.822 262.802 124.333 263.021 124.744C263.245 125.148 263.538 125.449 263.899 125.646C264.26 125.838 264.664 125.933 265.113 125.933C265.534 125.933 265.923 125.87 266.278 125.745C266.639 125.619 267.014 125.425 267.402 125.162L268.116 126.155C267.706 126.483 267.235 126.74 266.705 126.926C266.174 127.112 265.627 127.205 265.064 127.205C264.21 127.205 263.48 127.019 262.873 126.647C262.266 126.27 261.804 125.742 261.486 125.064C261.169 124.38 261.01 123.587 261.01 122.684C261.01 121.814 261.166 121.038 261.478 120.354C261.795 119.665 262.244 119.126 262.824 118.737C263.409 118.344 264.09 118.147 264.867 118.147C265.605 118.147 266.245 118.319 266.787 118.664C267.328 119.008 267.744 119.503 268.034 120.149C268.324 120.789 268.469 121.546 268.469 122.422C268.469 122.673 268.458 122.936 268.436 123.209H262.651ZM264.883 119.377C264.243 119.377 263.724 119.604 263.324 120.058C262.93 120.507 262.706 121.174 262.651 122.061H266.951C266.935 121.191 266.746 120.526 266.385 120.067C266.024 119.607 265.523 119.377 264.883 119.377ZM285.088 118.147C286.187 118.147 286.983 118.541 287.475 119.328C287.973 120.11 288.222 121.224 288.222 122.668C288.222 123.559 288.096 124.347 287.845 125.031C287.598 125.709 287.224 126.242 286.721 126.631C286.223 127.014 285.613 127.205 284.891 127.205C283.961 127.205 283.211 126.877 282.643 126.221V130.315L281.067 130.504V118.352H282.421L282.536 119.517C282.859 119.074 283.239 118.735 283.676 118.499C284.114 118.264 284.584 118.147 285.088 118.147ZM284.686 119.386C284.27 119.386 283.89 119.511 283.545 119.763C283.201 120.009 282.9 120.326 282.643 120.715V124.899C282.861 125.228 283.129 125.482 283.447 125.663C283.769 125.843 284.122 125.933 284.505 125.933C285.189 125.933 285.7 125.668 286.039 125.137C286.384 124.601 286.556 123.778 286.556 122.668C286.556 121.546 286.403 120.72 286.097 120.19C285.791 119.654 285.32 119.386 284.686 119.386ZM294.283 118.147C295.098 118.147 295.788 118.333 296.351 118.705C296.92 119.071 297.346 119.594 297.631 120.272C297.921 120.945 298.066 121.743 298.066 122.668C298.066 123.57 297.918 124.363 297.623 125.047C297.333 125.725 296.901 126.256 296.326 126.639C295.757 127.016 295.071 127.205 294.267 127.205C293.452 127.205 292.76 127.022 292.191 126.655C291.622 126.283 291.193 125.758 290.903 125.08C290.613 124.402 290.468 123.603 290.468 122.684C290.468 121.782 290.616 120.991 290.911 120.313C291.206 119.629 291.638 119.098 292.207 118.721C292.782 118.338 293.474 118.147 294.283 118.147ZM294.283 119.402C293.567 119.402 293.028 119.67 292.667 120.206C292.311 120.742 292.133 121.568 292.133 122.684C292.133 123.789 292.309 124.61 292.659 125.146C293.014 125.682 293.55 125.95 294.267 125.95C294.983 125.95 295.517 125.682 295.867 125.146C296.222 124.604 296.4 123.778 296.4 122.668C296.4 121.563 296.222 120.742 295.867 120.206C295.517 119.67 294.989 119.402 294.283 119.402ZM304.307 124.768C304.307 125.162 304.428 125.452 304.669 125.638C304.915 125.818 305.254 125.909 305.686 125.909C306.14 125.909 306.613 125.81 307.105 125.613L307.516 126.737C307.248 126.874 306.933 126.986 306.572 127.074C306.211 127.161 305.817 127.205 305.391 127.205C304.849 127.205 304.379 127.104 303.979 126.902C303.58 126.694 303.271 126.398 303.052 126.015C302.839 125.632 302.732 125.178 302.732 124.653V116.071H300.098V114.873H304.307V124.768ZM314.939 127.049C314.589 128.067 314.105 128.871 313.487 129.462C312.874 130.052 312.018 130.4 310.918 130.504L310.697 129.281C311.271 129.188 311.731 129.046 312.075 128.854C312.425 128.668 312.702 128.43 312.904 128.141C313.106 127.851 313.292 127.47 313.462 127H312.929L309.95 118.352H311.632L313.987 125.851L316.334 118.352H317.958L314.939 127.049ZM326.194 118.352H327.81L324.709 127H322.871L319.786 118.352H321.46L323.831 125.63L326.194 118.352ZM336.661 125.014C336.661 125.348 336.713 125.597 336.817 125.761C336.927 125.92 337.102 126.037 337.342 126.114L336.973 127.197C336.114 127.088 335.556 126.685 335.299 125.991C334.993 126.385 334.602 126.685 334.126 126.893C333.656 127.101 333.136 127.205 332.567 127.205C331.993 127.205 331.492 127.096 331.065 126.877C330.644 126.653 330.319 126.338 330.089 125.933C329.865 125.529 329.753 125.058 329.753 124.522C329.753 123.625 330.103 122.936 330.803 122.454C331.508 121.968 332.52 121.724 333.839 121.724H335.094V121.068C335.094 120.493 334.922 120.075 334.577 119.812C334.238 119.55 333.743 119.418 333.092 119.418C332.786 119.418 332.436 119.457 332.042 119.533C331.648 119.604 331.24 119.714 330.819 119.862L330.417 118.713C331.418 118.335 332.389 118.147 333.33 118.147C334.424 118.147 335.253 118.396 335.816 118.893C336.38 119.391 336.661 120.089 336.661 120.986V125.014ZM333.01 126.024C333.415 126.024 333.803 125.92 334.175 125.712C334.547 125.504 334.853 125.214 335.094 124.842V122.75H333.945C333.065 122.75 332.425 122.9 332.025 123.201C331.626 123.496 331.426 123.923 331.426 124.481C331.426 124.99 331.558 125.375 331.82 125.638C332.088 125.895 332.485 126.024 333.01 126.024ZM343.682 124.768C343.682 125.162 343.803 125.452 344.044 125.638C344.29 125.818 344.629 125.909 345.061 125.909C345.515 125.909 345.988 125.81 346.48 125.613L346.891 126.737C346.623 126.874 346.308 126.986 345.947 127.074C345.586 127.161 345.192 127.205 344.766 127.205C344.224 127.205 343.754 127.104 343.354 126.902C342.955 126.694 342.646 126.398 342.427 126.015C342.214 125.632 342.107 125.178 342.107 124.653V116.071H339.473V114.873H343.682V124.768ZM351.245 123.209C351.273 123.822 351.396 124.333 351.614 124.744C351.839 125.148 352.131 125.449 352.492 125.646C352.853 125.838 353.258 125.933 353.707 125.933C354.128 125.933 354.516 125.87 354.872 125.745C355.233 125.619 355.608 125.425 355.996 125.162L356.71 126.155C356.3 126.483 355.829 126.74 355.299 126.926C354.768 127.112 354.221 127.205 353.658 127.205C352.804 127.205 352.074 127.019 351.467 126.647C350.86 126.27 350.397 125.742 350.08 125.064C349.763 124.38 349.604 123.587 349.604 122.684C349.604 121.814 349.76 121.038 350.072 120.354C350.389 119.665 350.838 119.126 351.418 118.737C352.003 118.344 352.684 118.147 353.461 118.147C354.199 118.147 354.839 118.319 355.381 118.664C355.922 119.008 356.338 119.503 356.628 120.149C356.918 120.789 357.063 121.546 357.063 122.422C357.063 122.673 357.052 122.936 357.03 123.209H351.245ZM353.477 119.377C352.837 119.377 352.317 119.604 351.918 120.058C351.524 120.507 351.3 121.174 351.245 122.061H355.545C355.528 121.191 355.34 120.526 354.979 120.067C354.618 119.607 354.117 119.377 353.477 119.377ZM359.817 127V118.352H361.171L361.286 119.517C361.636 119.085 362.065 118.748 362.574 118.508C363.083 118.267 363.597 118.147 364.117 118.147C364.932 118.147 365.539 118.368 365.938 118.811C366.343 119.254 366.545 119.886 366.545 120.707V127H364.97V121.675C364.97 121.079 364.937 120.622 364.872 120.305C364.806 119.987 364.675 119.752 364.478 119.599C364.281 119.446 363.985 119.369 363.592 119.369C363.159 119.369 362.749 119.503 362.361 119.771C361.978 120.034 361.655 120.357 361.393 120.739V127H359.817ZM376.685 126.557C376.378 126.754 376.009 126.91 375.577 127.025C375.145 127.145 374.713 127.205 374.28 127.205C373.651 127.205 373.113 127.093 372.664 126.869C372.215 126.639 371.876 126.322 371.647 125.917C371.417 125.507 371.302 125.031 371.302 124.489V119.533H369.341V118.352H371.302V116.399L372.877 116.21V118.352H375.831L375.651 119.533H372.877V124.473C372.877 124.96 373 125.321 373.247 125.556C373.498 125.791 373.903 125.909 374.461 125.909C375.041 125.909 375.585 125.772 376.094 125.498L376.685 126.557Z" fill="black"/>
<rect x="0.5" y="0.5" width="412" height="159" rx="7.5" stroke="black"/>
</svg>
