<svg viewBox="0 0 145 99" fill="none" xmlns="http://www.w3.org/2000/svg"><path fill-rule="evenodd" clip-rule="evenodd" d="M34.5855 83.5045V40.0772C34.5855 28.6414 40.0892 22.9958 47.8587 22.9958C55.9215 22.9958 60.9763 28.9309
		60.9763 37.1821V83.5045H84.9722V40.0772C84.9722 28.6414 90.4589 22.9958 98.2285 22.9958C106.291 22.9958 111.386
		28.9309 111.386 37.1821V83.5045H144.95V59.6195L135.355 59.588V33.2917C135.355 13.8942 125.013 0.992676 109.034
		0.992676C95.4005 0.992676 87.2404 6.8084 81.3765 16.5072C77.1253 6.95316 69.453 0.992676 58.7516
		0.992676C49.3695 0.992676 39.8629 5.71422 34.5855
		12.9521V0.992676H0.99292V23.9423H10.6031V59.6195H0.99292V83.5045H34.5855Z" fill="white"></path><rect x="60.9749" y="83.5049" width="83.9748" height="14.8282" fill="#FC9F5B"></rect></svg>
