<svg width="453" height="194" viewBox="0 0 453 194" fill="none" xmlns="http://www.w3.org/2000/svg">
<rect width="453" height="194" fill="url(#paint0_linear)"/>
<rect x="20" y="17" width="413" height="160" rx="8" fill="white"/>
<path d="M129.789 62.56C132.541 64.096 134.781 66.176 136.509 68.8C138.301 71.424 139.197 74.368 139.197 77.632C139.197 80.896 137.149 84.64 133.053 88.864C128.957 93.088 123.965 96.704 118.077 99.712C112.253 102.656 107.165 104.128 102.813 104.128C98.525 104.128 95.421 102.336 93.501 98.752C82.493 113.536 76.285 122.496 74.877 125.632C74.941 125.952 74.973 126.4 74.973 126.976C74.973 127.616 74.621 127.936 73.917 127.936C73.213 127.936 72.285 127.328 71.133 126.112C70.045 124.96 69.501 123.296 69.501 121.12C69.501 120.48 69.533 119.968 69.597 119.584C70.173 115.36 76.029 107.04 87.165 94.624C98.365 82.208 106.429 74.656 111.357 71.968C112.381 71.456 113.149 71.2 113.661 71.2C114.173 71.2 114.685 71.36 115.197 71.68C115.773 72 116.061 72.384 116.061 72.832C116.061 73.28 115.933 73.632 115.677 73.888C110.877 78.88 107.997 81.92 107.037 83.008L95.613 96.256C95.485 96.448 95.421 96.64 95.421 96.832C95.421 97.28 95.709 97.504 96.285 97.504C98.845 97.504 102.301 96.768 106.653 95.296C111.069 93.824 115.421 92 119.709 89.824C123.997 87.584 127.709 84.992 130.845 82.048C133.981 79.04 135.549 76.256 135.549 73.696C135.549 71.584 133.533 70.016 129.501 68.992C125.469 67.968 121.117 67.456 116.445 67.456C111.837 67.456 106.845 68.128 101.469 69.472C96.093 70.752 91.389 72.352 87.357 74.272C83.389 76.192 79.805 78.208 76.605 80.32C73.405 82.368 70.973 84.192 69.309 85.792C67.709 87.328 66.909 88.352 66.909 88.864C66.909 89.312 67.133 89.536 67.581 89.536C68.029 89.536 69.245 89.216 71.229 88.576C77.629 86.464 83.901 83.616 90.045 80.032C90.493 79.776 90.781 79.648 90.909 79.648C91.101 79.648 91.197 79.744 91.197 79.936C91.197 80.064 90.781 80.672 89.949 81.76C89.181 82.784 88.093 84.064 86.685 85.6C85.277 87.072 83.741 88.512 82.077 89.92C80.413 91.328 78.525 92.544 76.413 93.568C74.365 94.528 72.349 95.008 70.365 95.008C68.445 95.008 66.525 94.24 64.605 92.704C62.749 91.104 61.821 88.96 61.821 86.272C61.821 83.52 63.165 80.544 65.853 77.344C68.541 74.144 72.061 71.104 76.413 68.224C80.829 65.344 86.301 62.912 92.829 60.928C99.357 58.944 105.725 57.952 111.933 57.952C118.141 57.952 124.093 59.488 129.789 62.56ZM125.097 119.776C127.145 119.776 129.673 118.432 132.681 115.744C135.689 113.056 137.257 111.2 137.385 110.176C136.617 109.536 135.785 108.384 134.889 106.72C134.057 104.992 133.609 104.128 133.545 104.128C131.561 105.984 129.801 108.128 128.265 110.56C125.833 114.656 124.617 117.472 124.617 119.008C124.617 119.52 124.777 119.776 125.097 119.776ZM145.833 96.256C145.193 96.256 143.849 97.248 141.801 99.232C139.817 101.216 138.825 102.592 138.825 103.36C138.825 103.552 139.017 103.936 139.401 104.512C139.785 105.088 140.073 105.376 140.265 105.376C141.353 105.376 142.569 104.064 143.913 101.44C145.321 98.816 146.025 97.312 146.025 96.928C146.025 96.48 145.961 96.256 145.833 96.256ZM146.025 108.64C147.817 108.64 150.601 107.552 154.377 105.376C158.217 103.2 161.577 101.024 164.457 98.848L168.777 95.488C169.353 95.936 169.641 96.48 169.641 97.12C169.641 97.76 169.353 98.336 168.777 98.848C158.217 108.64 150.217 113.536 144.777 113.536C144.393 113.536 143.817 113.472 143.049 113.344C135.817 121.728 129.609 125.92 124.425 125.92C120.969 125.408 118.793 124.192 117.897 122.272C117.385 121.312 117.129 120.096 117.129 118.624C117.129 114.4 119.561 109.376 124.425 103.552C129.289 97.664 135.401 93.344 142.761 90.592C143.401 90.592 143.881 90.752 144.201 91.072C144.521 91.328 144.809 91.488 145.065 91.552C145.321 91.552 145.641 91.424 146.025 91.168C146.473 90.848 147.049 90.688 147.753 90.688C148.457 90.624 149.193 91.008 149.961 91.84C150.985 92.672 151.497 93.696 151.497 94.912C151.497 98.496 149.673 103.072 146.025 108.64ZM163.989 117.664C166.101 117.664 170.261 115.776 176.469 112C182.741 108.224 188.437 104.448 193.557 100.672L201.333 95.008C201.909 95.456 202.197 96 202.197 96.64C202.197 97.28 201.877 97.888 201.237 98.464C200.597 99.04 199.669 99.872 198.453 100.96C197.301 102.048 195.061 104 191.733 106.816C188.405 109.632 185.301 112.192 182.421 114.496C174.869 120.576 169.301 124.16 165.717 125.248C164.565 125.568 163.381 125.728 162.165 125.728C160.949 125.728 159.989 125.632 159.285 125.44C158.581 125.248 157.813 124.832 156.981 124.192C155.317 122.784 154.485 119.648 154.485 114.784C154.485 113.44 155.061 111.392 156.213 108.64C157.365 105.888 159.253 102.56 161.877 98.656C164.565 94.752 167.669 90.848 171.189 86.944C174.773 83.04 179.285 79.136 184.725 75.232C190.229 71.328 196.085 68.16 202.293 65.728C203.253 65.408 204.117 65.248 204.885 65.248C205.653 65.248 206.357 65.6 206.997 66.304C207.637 66.944 208.085 67.616 208.341 68.32L208.821 69.28C208.821 70.752 206.549 73.984 202.005 78.976C197.333 84.16 191.925 89.12 185.781 93.856C179.701 98.528 174.037 102.528 168.789 105.856C164.501 108.672 162.357 111.616 162.357 114.688C162.357 116.672 162.901 117.664 163.989 117.664ZM172.629 97.792C174.229 97.792 179.061 93.856 187.125 85.984C195.253 78.112 199.317 73.728 199.317 72.832L199.221 72.64L197.589 73.408C194.261 75.584 189.813 79.296 184.245 84.544C178.741 89.792 174.933 93.888 172.821 96.832C172.565 97.152 172.437 97.408 172.437 97.6C172.437 97.728 172.501 97.792 172.629 97.792ZM219.103 92.992C222.111 93.312 223.615 93.984 223.615 95.008C223.615 95.456 223.359 95.968 222.847 96.544C213.823 106.592 203.455 119.392 191.743 134.944C188.351 139.552 184.895 143.904 181.375 148C177.855 152.096 174.559 155.072 171.487 156.928C168.415 158.848 165.215 159.808 161.887 159.808C160.223 159.808 158.751 159.36 157.471 158.464C156.191 157.568 155.551 156.352 155.551 154.816C155.551 151.232 157.279 147.52 160.735 143.68C164.191 139.84 168.063 136.704 172.351 134.272C176.639 131.904 180.351 130.528 183.487 130.144L185.503 130.432C186.143 130.368 188.479 127.904 192.511 123.04C196.607 118.176 198.655 115.616 198.655 115.36C198.719 115.04 198.687 114.88 198.559 114.88L196.735 116.32C191.935 120.8 188.191 123.04 185.503 123.04C183.775 123.04 182.911 121.824 182.911 119.392C182.911 116.128 185.567 110.976 190.879 103.936C196.191 96.896 200.095 93.376 202.591 93.376C202.783 93.376 203.007 93.44 203.263 93.568C205.055 94.016 205.951 94.656 205.951 95.488C205.951 95.808 205.855 96.064 205.663 96.256C205.535 96.384 204.895 96.992 203.743 98.08C202.655 99.168 201.567 100.32 200.479 101.536C199.391 102.688 198.239 103.968 197.023 105.376C194.271 108.576 192.895 110.976 192.895 112.576C192.895 112.96 193.087 113.152 193.471 113.152C193.919 113.152 194.719 112.8 195.871 112.096C204.959 105.888 212.063 99.968 217.183 94.336C217.631 93.44 218.271 92.992 219.103 92.992ZM160.543 155.584C162.783 154.88 165.791 152.672 169.567 148.96C173.343 145.312 176.575 141.856 179.263 138.592L183.295 133.6C183.679 133.088 183.871 132.768 183.871 132.64C183.871 132.512 183.775 132.448 183.583 132.448C181.535 132.448 178.623 134.016 174.847 137.152C171.007 140.288 167.615 143.712 164.671 147.424C161.663 151.136 160.159 153.76 160.159 155.296C160.159 155.488 160.287 155.584 160.543 155.584ZM256.937 118.048C256.937 118.624 257.289 118.912 257.993 118.912C258.761 118.912 260.105 118.464 262.025 117.568C264.009 116.672 266.345 115.296 269.033 113.44C271.785 111.584 275.401 108.96 279.881 105.568C284.425 102.112 288.393 99.2 291.785 96.832C292.361 97.28 292.649 97.824 292.649 98.464C292.649 99.104 292.361 99.68 291.785 100.192C289.737 102.176 287.145 104.672 284.009 107.68C280.873 110.624 276.073 114.592 269.609 119.584C263.209 124.576 258.729 127.072 256.169 127.072C251.241 127.072 248.777 124.448 248.777 119.2C248.777 117.216 249.545 115.136 251.081 112.96L255.209 107.296C255.593 106.72 255.785 106.4 255.785 106.336C255.785 106.208 255.593 106.304 255.209 106.624C244.073 115.904 236.969 121.344 233.897 122.944C233.385 123.264 232.745 123.424 231.977 123.424C229.865 123.424 228.809 122.464 228.809 120.544C228.809 119.904 228.969 119.328 229.289 118.816C233.001 113.44 235.849 109.824 237.833 107.968L239.465 106.336C239.593 106.208 239.656 106.08 239.656 105.952C239.656 105.824 239.593 105.76 239.465 105.76C239.337 105.76 239.145 105.888 238.889 106.144L228.617 114.208C222.665 118.88 219.401 121.376 218.825 121.696C218.313 121.952 217.833 122.08 217.385 122.08C216.937 122.08 216.233 121.824 215.273 121.312C214.312 120.736 213.832 120.096 213.832 119.392C213.832 119.2 213.928 118.944 214.12 118.624C220.393 111.712 224.969 106.016 227.849 101.536C229.065 99.616 230.121 97.92 231.017 96.448C231.977 94.912 232.713 93.824 233.225 93.184C233.801 92.544 234.409 92.224 235.049 92.224C235.689 92.224 236.393 92.608 237.161 93.376C237.993 94.08 238.409 94.816 238.409 95.584C238.409 96.352 238.153 97.152 237.641 97.984C235.465 101.888 233.769 104.416 232.553 105.568C232.361 105.76 232.265 105.952 232.265 106.144C232.265 106.272 232.329 106.336 232.457 106.336L232.745 106.24L245.609 97.312C248.873 95.072 250.825 93.952 251.465 93.952C252.105 93.952 252.777 94.176 253.481 94.624C254.249 95.008 254.633 95.456 254.633 95.968C254.633 96.48 254.473 96.992 254.153 97.504L247.913 106.048C247.081 107.072 246.665 107.648 246.665 107.776C246.665 107.904 246.697 107.968 246.761 107.968L247.241 107.68C255.241 102.24 260.649 98.464 263.465 96.352C266.345 94.24 268.073 92.896 268.649 92.32C269.545 91.68 270.281 91.36 270.857 91.36C271.497 91.36 271.913 91.424 272.105 91.552L274.217 93.184C274.857 93.504 275.177 93.92 275.177 94.432C275.177 94.944 275.049 95.36 274.793 95.68C271.017 99.776 267.977 103.04 265.673 105.472C263.433 107.904 261.801 109.696 260.777 110.848C259.113 112.832 258.089 114.432 257.705 115.648C257.193 116.544 256.937 117.344 256.937 118.048ZM293.088 119.968L293.856 113.824C293.856 113.632 293.792 113.536 293.664 113.536C293.6 113.536 293.44 113.664 293.184 113.92C292.352 114.816 291.296 115.936 290.016 117.28C288.736 118.56 286.528 120.32 283.392 122.56C280.32 124.736 277.824 125.824 275.904 125.824C275.584 125.76 275.2 125.632 274.752 125.44C274.24 125.312 273.6 124.8 272.832 123.904C272.064 123.008 271.68 121.728 271.68 120.064C271.68 118.4 272.96 115.872 275.52 112.48C278.016 109.024 281.024 105.664 284.544 102.4C288.064 99.072 291.968 96.192 296.256 93.76C300.608 91.328 304.384 90.112 307.584 90.112C308.8 90.176 309.76 91.04 310.464 92.704C311.104 92.064 311.68 91.744 312.192 91.744C312.704 91.744 313.312 92.128 314.016 92.896C314.4 92.96 314.784 93.184 315.168 93.568C315.552 93.888 315.744 94.368 315.744 95.008C315.744 95.648 315.296 96.352 314.4 97.12C313.056 98.784 311.488 100.672 309.696 102.784C307.904 104.896 306.624 106.432 305.856 107.392C305.088 108.288 304.288 109.312 303.456 110.464C302.048 112.448 301.28 114.048 301.152 115.264C307.68 112.128 317.952 105.376 331.968 95.008C332.544 95.456 332.832 96 332.832 96.64C332.832 97.28 332.576 97.824 332.064 98.272C331.552 98.72 330.912 99.264 330.144 99.904C329.44 100.544 328 101.792 325.824 103.648C323.648 105.504 321.536 107.296 319.488 109.024C317.504 110.688 315.2 112.576 312.576 114.688C310.016 116.736 307.712 118.496 305.664 119.968C300.736 123.488 297.664 125.248 296.448 125.248C295.232 125.248 294.368 124.864 293.856 124.096C293.344 123.328 293.088 121.952 293.088 119.968ZM283.296 115.936C284.064 115.936 286.4 114.368 290.304 111.232C294.272 108.096 298.016 104.96 301.536 101.824L306.912 97.12C307.168 96.864 307.296 96.704 307.296 96.64C307.296 96.512 307.2 96.448 307.008 96.448C304.576 96.448 301.408 97.856 297.504 100.672C293.6 103.424 290.208 106.368 287.328 109.504C284.512 112.576 283.104 114.656 283.104 115.744C283.104 115.872 283.168 115.936 283.296 115.936ZM357.47 79.648L362.366 79.552C368.702 79.552 373.31 80.448 376.19 82.24C377.598 82.688 378.302 83.264 378.302 83.968C378.302 84.48 377.662 84.832 376.382 85.024C375.166 85.216 370.846 85.728 363.422 86.56C356.062 87.328 351.006 87.776 348.254 87.904C347.038 87.968 344.222 90.08 339.806 94.24C335.454 98.4 331.294 102.976 327.326 107.968C323.358 112.96 321.374 116.448 321.374 118.432C321.374 118.752 321.534 119.04 321.854 119.296C322.174 119.488 322.558 119.584 323.006 119.584C323.518 119.584 324.286 119.392 325.31 119.008C337.47 111.84 349.278 104 360.734 95.488C361.31 95.936 361.598 96.48 361.598 97.12C361.598 97.76 361.278 98.4 360.638 99.04C359.998 99.616 359.038 100.48 357.758 101.632C356.542 102.784 354.238 104.864 350.846 107.872C347.454 110.88 344.254 113.568 341.246 115.936C333.182 122.464 327.55 126.24 324.35 127.264C323.198 127.584 321.822 127.744 320.222 127.744C318.686 127.744 317.246 126.944 315.902 125.344C314.622 123.744 313.982 121.568 313.982 118.816C313.982 116.064 315.742 112.096 319.262 106.912C322.846 101.728 327.71 96.416 333.854 90.976C334.43 90.528 334.718 90.112 334.718 89.728C334.718 89.344 334.046 89.152 332.702 89.152L326.654 89.344C318.142 89.344 313.758 88.384 313.502 86.464C311.518 86.08 310.526 85.504 310.526 84.736C310.526 84.48 310.654 84.352 310.91 84.352C311.166 84.288 311.39 84.256 311.582 84.256C311.774 84.192 312.094 84.128 312.542 84.064C312.99 84 316.51 83.488 323.102 82.528C329.758 81.568 337.31 80.768 345.758 80.128L352.382 71.296C352.766 70.528 354.11 70.144 356.414 70.144C358.718 70.144 359.87 70.624 359.87 71.584C359.87 71.904 359.614 72.48 359.102 73.312L356.702 76.672C356.382 77.696 356.19 78.464 356.126 78.976C356.126 79.424 356.574 79.648 357.47 79.648ZM366.924 115.552C366.924 115.872 367.052 116.032 367.308 116.032C367.564 116.032 368.076 115.84 368.844 115.456C378.38 110.336 388.876 103.52 400.332 95.008C400.908 95.456 401.196 96 401.196 96.64C401.196 97.28 400.876 97.888 400.236 98.464C399.596 99.04 398.668 99.872 397.452 100.96C396.3 102.048 394.06 104 390.732 106.816C387.404 109.632 384.3 112.192 381.42 114.496C373.868 120.576 368.3 124.16 364.716 125.248C363.564 125.568 362.316 125.728 360.972 125.728C358.796 125.728 357.708 124.032 357.708 120.64C357.708 119.488 358.412 117.6 359.82 114.976C361.228 112.288 361.932 110.336 361.932 109.12C361.932 108.992 361.836 108.928 361.644 108.928C361.452 108.928 360.972 109.216 360.204 109.792C351.308 116.704 345.9 121.504 343.98 124.192C343.596 124.768 343.084 125.056 342.444 125.056C341.036 125.056 340.14 124.384 339.756 123.04C339.756 121.12 342.444 116.256 347.82 108.448C353.26 100.64 359.628 92.448 366.924 83.872C374.22 75.232 380.172 69.152 384.78 65.632C386.124 64.352 389.26 63.712 394.188 63.712C394.956 63.904 395.34 64.224 395.34 64.672C395.34 65.12 395.116 65.568 394.668 66.016C376.236 83.808 364.524 96.128 359.532 102.976C359.276 103.232 358.924 103.712 358.476 104.416C358.092 105.056 357.9 105.472 357.9 105.664L357.996 105.76C358.252 105.76 360.268 104.352 364.044 101.536C367.82 98.656 370.636 96.608 372.492 95.392C373.068 94.816 374.284 94.528 376.14 94.528C377.74 94.72 378.54 95.232 378.54 96.064C378.54 96.32 378.476 96.544 378.348 96.736C373.612 103.456 370.764 107.744 369.804 109.6C367.884 112.608 366.924 114.592 366.924 115.552Z" fill="url(#paint1_linear)"/>
<path d="M209.85 133.973H204.878V137.781H209.235V139.052H204.878V144H203.253V132.693H210.039L209.85 133.973ZM218.439 135.147C218.674 135.147 218.887 135.163 219.079 135.196C219.27 135.229 219.478 135.281 219.702 135.352L219.456 138.388H218.242V136.583H218.233C216.937 136.583 216.007 137.51 215.444 139.364V142.835H217.2V144H212.555V142.835H213.868V136.517H212.555V135.352H215.074L215.362 137.378C215.706 136.629 216.119 136.071 216.601 135.705C217.082 135.333 217.695 135.147 218.439 135.147ZM223.589 140.209C223.616 140.822 223.739 141.333 223.958 141.744C224.182 142.148 224.475 142.449 224.836 142.646C225.197 142.838 225.602 142.933 226.051 142.933C226.472 142.933 226.86 142.87 227.216 142.745C227.577 142.619 227.951 142.425 228.34 142.162L229.054 143.155C228.643 143.483 228.173 143.74 227.642 143.926C227.112 144.112 226.565 144.205 226.001 144.205C225.148 144.205 224.418 144.019 223.811 143.647C223.203 143.27 222.741 142.742 222.424 142.064C222.107 141.38 221.948 140.587 221.948 139.684C221.948 138.814 222.104 138.038 222.416 137.354C222.733 136.665 223.181 136.126 223.761 135.737C224.347 135.344 225.028 135.147 225.804 135.147C226.543 135.147 227.183 135.319 227.724 135.664C228.266 136.008 228.682 136.503 228.972 137.149C229.261 137.789 229.406 138.546 229.406 139.422C229.406 139.673 229.395 139.936 229.374 140.209H223.589ZM225.821 136.377C225.181 136.377 224.661 136.604 224.262 137.058C223.868 137.507 223.644 138.174 223.589 139.061H227.888C227.872 138.191 227.683 137.526 227.322 137.067C226.961 136.607 226.461 136.377 225.821 136.377ZM233.433 140.209C233.46 140.822 233.583 141.333 233.802 141.744C234.026 142.148 234.319 142.449 234.68 142.646C235.041 142.838 235.446 142.933 235.894 142.933C236.315 142.933 236.704 142.87 237.059 142.745C237.42 142.619 237.795 142.425 238.183 142.162L238.897 143.155C238.487 143.483 238.017 143.74 237.486 143.926C236.955 144.112 236.408 144.205 235.845 144.205C234.992 144.205 234.261 144.019 233.654 143.647C233.047 143.27 232.585 142.742 232.268 142.064C231.95 141.38 231.792 140.587 231.792 139.684C231.792 138.814 231.948 138.038 232.259 137.354C232.577 136.665 233.025 136.126 233.605 135.737C234.19 135.344 234.871 135.147 235.648 135.147C236.387 135.147 237.027 135.319 237.568 135.664C238.11 136.008 238.525 136.503 238.815 137.149C239.105 137.789 239.25 138.546 239.25 139.422C239.25 139.673 239.239 139.936 239.217 140.209H233.433ZM235.665 136.377C235.025 136.377 234.505 136.604 234.106 137.058C233.712 137.507 233.487 138.174 233.433 139.061H237.732C237.716 138.191 237.527 137.526 237.166 137.067C236.805 136.607 236.305 136.377 235.665 136.377ZM245.557 141.768C245.557 142.162 245.678 142.452 245.919 142.638C246.165 142.818 246.504 142.909 246.936 142.909C247.39 142.909 247.863 142.81 248.355 142.613L248.766 143.737C248.498 143.874 248.183 143.986 247.822 144.074C247.461 144.161 247.067 144.205 246.641 144.205C246.099 144.205 245.629 144.104 245.229 143.902C244.83 143.694 244.521 143.398 244.302 143.015C244.089 142.632 243.982 142.178 243.982 141.653V133.071H241.348V131.873H245.557V141.768ZM258.224 142.014C258.224 142.348 258.276 142.597 258.38 142.761C258.489 142.92 258.664 143.037 258.905 143.114L258.536 144.197C257.677 144.088 257.119 143.685 256.862 142.991C256.555 143.385 256.164 143.685 255.688 143.893C255.218 144.101 254.698 144.205 254.129 144.205C253.555 144.205 253.055 144.096 252.628 143.877C252.207 143.653 251.881 143.338 251.652 142.933C251.427 142.529 251.315 142.058 251.315 141.522C251.315 140.625 251.665 139.936 252.365 139.454C253.071 138.968 254.083 138.724 255.401 138.724H256.657V138.068C256.657 137.493 256.484 137.075 256.14 136.812C255.801 136.55 255.306 136.418 254.655 136.418C254.348 136.418 253.998 136.457 253.604 136.533C253.21 136.604 252.803 136.714 252.382 136.862L251.98 135.713C252.981 135.335 253.952 135.147 254.893 135.147C255.987 135.147 256.815 135.396 257.379 135.893C257.942 136.391 258.224 137.089 258.224 137.986V142.014ZM254.573 143.024C254.977 143.024 255.366 142.92 255.738 142.712C256.11 142.504 256.416 142.214 256.657 141.842V139.75H255.508C254.627 139.75 253.987 139.9 253.588 140.201C253.189 140.496 252.989 140.923 252.989 141.481C252.989 141.99 253.12 142.375 253.383 142.638C253.651 142.895 254.047 143.024 254.573 143.024ZM261.692 144V135.352H263.046L263.161 136.517C263.511 136.085 263.94 135.748 264.449 135.508C264.958 135.267 265.472 135.147 265.992 135.147C266.807 135.147 267.414 135.368 267.813 135.811C268.218 136.254 268.42 136.886 268.42 137.707V144H266.845V138.675C266.845 138.079 266.812 137.622 266.747 137.305C266.681 136.987 266.55 136.752 266.353 136.599C266.156 136.446 265.86 136.369 265.467 136.369C265.034 136.369 264.624 136.503 264.236 136.771C263.853 137.034 263.53 137.357 263.268 137.739V144H261.692ZM275.556 142.876C276.306 142.876 277.039 142.624 277.755 142.121L278.51 143.147C278.127 143.469 277.668 143.726 277.132 143.918C276.596 144.109 276.062 144.205 275.532 144.205C274.673 144.205 273.935 144.022 273.316 143.655C272.698 143.283 272.225 142.761 271.897 142.088C271.574 141.41 271.413 140.619 271.413 139.717C271.413 138.842 271.577 138.059 271.905 137.37C272.233 136.676 272.709 136.131 273.333 135.737C273.962 135.344 274.703 135.147 275.556 135.147C276.678 135.147 277.657 135.486 278.494 136.164L277.747 137.19C277.02 136.686 276.292 136.435 275.565 136.435C275.072 136.435 274.64 136.555 274.268 136.796C273.902 137.037 273.615 137.403 273.407 137.895C273.204 138.382 273.103 138.989 273.103 139.717C273.103 140.789 273.325 141.585 273.768 142.105C274.211 142.619 274.807 142.876 275.556 142.876ZM282.651 140.209C282.679 140.822 282.802 141.333 283.021 141.744C283.245 142.148 283.538 142.449 283.899 142.646C284.26 142.838 284.664 142.933 285.113 142.933C285.534 142.933 285.923 142.87 286.278 142.745C286.639 142.619 287.014 142.425 287.402 142.162L288.116 143.155C287.706 143.483 287.235 143.74 286.705 143.926C286.174 144.112 285.627 144.205 285.064 144.205C284.21 144.205 283.48 144.019 282.873 143.647C282.266 143.27 281.804 142.742 281.486 142.064C281.169 141.38 281.01 140.587 281.01 139.684C281.01 138.814 281.166 138.038 281.478 137.354C281.795 136.665 282.244 136.126 282.824 135.737C283.409 135.344 284.09 135.147 284.867 135.147C285.605 135.147 286.245 135.319 286.787 135.664C287.328 136.008 287.744 136.503 288.034 137.149C288.324 137.789 288.469 138.546 288.469 139.422C288.469 139.673 288.458 139.936 288.436 140.209H282.651ZM284.883 136.377C284.243 136.377 283.724 136.604 283.324 137.058C282.93 137.507 282.706 138.174 282.651 139.061H286.951C286.935 138.191 286.746 137.526 286.385 137.067C286.024 136.607 285.523 136.377 284.883 136.377ZM305.088 135.147C306.187 135.147 306.983 135.541 307.475 136.328C307.973 137.11 308.222 138.224 308.222 139.668C308.222 140.559 308.096 141.347 307.845 142.031C307.598 142.709 307.224 143.242 306.721 143.631C306.223 144.014 305.613 144.205 304.891 144.205C303.961 144.205 303.211 143.877 302.643 143.221V147.315L301.067 147.504V135.352H302.421L302.536 136.517C302.859 136.074 303.239 135.735 303.676 135.499C304.114 135.264 304.584 135.147 305.088 135.147ZM304.686 136.386C304.27 136.386 303.89 136.511 303.545 136.763C303.201 137.009 302.9 137.326 302.643 137.715V141.899C302.861 142.228 303.129 142.482 303.447 142.663C303.769 142.843 304.122 142.933 304.505 142.933C305.189 142.933 305.7 142.668 306.039 142.137C306.384 141.601 306.556 140.778 306.556 139.668C306.556 138.546 306.403 137.72 306.097 137.19C305.791 136.654 305.32 136.386 304.686 136.386ZM314.283 135.147C315.098 135.147 315.788 135.333 316.351 135.705C316.92 136.071 317.346 136.594 317.631 137.272C317.921 137.945 318.066 138.743 318.066 139.668C318.066 140.57 317.918 141.363 317.623 142.047C317.333 142.725 316.901 143.256 316.326 143.639C315.757 144.016 315.071 144.205 314.267 144.205C313.452 144.205 312.76 144.022 312.191 143.655C311.622 143.283 311.193 142.758 310.903 142.08C310.613 141.402 310.468 140.603 310.468 139.684C310.468 138.782 310.616 137.991 310.911 137.313C311.206 136.629 311.638 136.098 312.207 135.721C312.782 135.338 313.474 135.147 314.283 135.147ZM314.283 136.402C313.567 136.402 313.028 136.67 312.667 137.206C312.311 137.742 312.133 138.568 312.133 139.684C312.133 140.789 312.309 141.61 312.659 142.146C313.014 142.682 313.55 142.95 314.267 142.95C314.983 142.95 315.517 142.682 315.867 142.146C316.222 141.604 316.4 140.778 316.4 139.668C316.4 138.563 316.222 137.742 315.867 137.206C315.517 136.67 314.989 136.402 314.283 136.402ZM324.307 141.768C324.307 142.162 324.428 142.452 324.669 142.638C324.915 142.818 325.254 142.909 325.686 142.909C326.14 142.909 326.613 142.81 327.105 142.613L327.516 143.737C327.248 143.874 326.933 143.986 326.572 144.074C326.211 144.161 325.817 144.205 325.391 144.205C324.849 144.205 324.379 144.104 323.979 143.902C323.58 143.694 323.271 143.398 323.052 143.015C322.839 142.632 322.732 142.178 322.732 141.653V133.071H320.098V131.873H324.307V141.768ZM334.939 144.049C334.589 145.067 334.105 145.871 333.487 146.462C332.874 147.052 332.018 147.4 330.918 147.504L330.697 146.281C331.271 146.188 331.731 146.046 332.075 145.854C332.425 145.668 332.702 145.43 332.904 145.141C333.106 144.851 333.292 144.47 333.462 144H332.929L329.95 135.352H331.632L333.987 142.851L336.334 135.352H337.958L334.939 144.049ZM346.194 135.352H347.81L344.709 144H342.871L339.786 135.352H341.46L343.831 142.63L346.194 135.352ZM356.661 142.014C356.661 142.348 356.713 142.597 356.817 142.761C356.927 142.92 357.102 143.037 357.342 143.114L356.973 144.197C356.114 144.088 355.556 143.685 355.299 142.991C354.993 143.385 354.602 143.685 354.126 143.893C353.656 144.101 353.136 144.205 352.567 144.205C351.993 144.205 351.492 144.096 351.065 143.877C350.644 143.653 350.319 143.338 350.089 142.933C349.865 142.529 349.753 142.058 349.753 141.522C349.753 140.625 350.103 139.936 350.803 139.454C351.508 138.968 352.52 138.724 353.839 138.724H355.094V138.068C355.094 137.493 354.922 137.075 354.577 136.812C354.238 136.55 353.743 136.418 353.092 136.418C352.786 136.418 352.436 136.457 352.042 136.533C351.648 136.604 351.24 136.714 350.819 136.862L350.417 135.713C351.418 135.335 352.389 135.147 353.33 135.147C354.424 135.147 355.253 135.396 355.816 135.893C356.38 136.391 356.661 137.089 356.661 137.986V142.014ZM353.01 143.024C353.415 143.024 353.803 142.92 354.175 142.712C354.547 142.504 354.853 142.214 355.094 141.842V139.75H353.945C353.065 139.75 352.425 139.9 352.025 140.201C351.626 140.496 351.426 140.923 351.426 141.481C351.426 141.99 351.558 142.375 351.82 142.638C352.088 142.895 352.485 143.024 353.01 143.024ZM363.682 141.768C363.682 142.162 363.803 142.452 364.044 142.638C364.29 142.818 364.629 142.909 365.061 142.909C365.515 142.909 365.988 142.81 366.48 142.613L366.891 143.737C366.623 143.874 366.308 143.986 365.947 144.074C365.586 144.161 365.192 144.205 364.766 144.205C364.224 144.205 363.754 144.104 363.354 143.902C362.955 143.694 362.646 143.398 362.427 143.015C362.214 142.632 362.107 142.178 362.107 141.653V133.071H359.473V131.873H363.682V141.768ZM371.245 140.209C371.273 140.822 371.396 141.333 371.614 141.744C371.839 142.148 372.131 142.449 372.492 142.646C372.853 142.838 373.258 142.933 373.707 142.933C374.128 142.933 374.516 142.87 374.872 142.745C375.233 142.619 375.608 142.425 375.996 142.162L376.71 143.155C376.3 143.483 375.829 143.74 375.299 143.926C374.768 144.112 374.221 144.205 373.658 144.205C372.804 144.205 372.074 144.019 371.467 143.647C370.86 143.27 370.397 142.742 370.08 142.064C369.763 141.38 369.604 140.587 369.604 139.684C369.604 138.814 369.76 138.038 370.072 137.354C370.389 136.665 370.838 136.126 371.418 135.737C372.003 135.344 372.684 135.147 373.461 135.147C374.199 135.147 374.839 135.319 375.381 135.664C375.922 136.008 376.338 136.503 376.628 137.149C376.918 137.789 377.063 138.546 377.063 139.422C377.063 139.673 377.052 139.936 377.03 140.209H371.245ZM373.477 136.377C372.837 136.377 372.317 136.604 371.918 137.058C371.524 137.507 371.3 138.174 371.245 139.061H375.545C375.528 138.191 375.34 137.526 374.979 137.067C374.618 136.607 374.117 136.377 373.477 136.377ZM379.817 144V135.352H381.171L381.286 136.517C381.636 136.085 382.065 135.748 382.574 135.508C383.083 135.267 383.597 135.147 384.117 135.147C384.932 135.147 385.539 135.368 385.938 135.811C386.343 136.254 386.545 136.886 386.545 137.707V144H384.97V138.675C384.97 138.079 384.937 137.622 384.872 137.305C384.806 136.987 384.675 136.752 384.478 136.599C384.281 136.446 383.985 136.369 383.592 136.369C383.159 136.369 382.749 136.503 382.361 136.771C381.978 137.034 381.655 137.357 381.393 137.739V144H379.817ZM396.685 143.557C396.378 143.754 396.009 143.91 395.577 144.025C395.145 144.145 394.713 144.205 394.28 144.205C393.651 144.205 393.113 144.093 392.664 143.869C392.215 143.639 391.876 143.322 391.647 142.917C391.417 142.507 391.302 142.031 391.302 141.489V136.533H389.341V135.352H391.302V133.399L392.877 133.21V135.352H395.831L395.651 136.533H392.877V141.473C392.877 141.96 393 142.321 393.247 142.556C393.498 142.791 393.903 142.909 394.461 142.909C395.041 142.909 395.585 142.772 396.094 142.498L396.685 143.557Z" fill="url(#paint2_linear)"/>
<defs>
<linearGradient id="paint0_linear" x1="226.5" y1="0" x2="226.5" y2="194" gradientUnits="userSpaceOnUse">
<stop stop-color="#FC466B"/>
<stop offset="1" stop-color="#3F5EFB"/>
</linearGradient>
<linearGradient id="paint1_linear" x1="223.5" y1="30" x2="223.5" y2="164" gradientUnits="userSpaceOnUse">
<stop stop-color="#3F5EFB"/>
<stop offset="1" stop-color="#FC466B"/>
</linearGradient>
<linearGradient id="paint2_linear" x1="299.5" y1="129" x2="299.5" y2="149" gradientUnits="userSpaceOnUse">
<stop stop-color="#3F5EFB"/>
<stop offset="1" stop-color="#FC466B"/>
</linearGradient>
</defs>
</svg>
